<svg xmlns="http://www.w3.org/2000/svg" width="43" height="35"><path d="M43 4.14a17.513 17.513 0 0 1-5.05 1.4 8.847 8.847 0 0 0 3.87-4.9 17.6 17.6 0 0 1-5.6 2.15 8.836 8.836 0 0 0-15.27 6.04 9.067 9.067 0 0 0 .23 2.02A25.107 25.107 0 0 1 2.99 1.62a8.822 8.822 0 0 0 2.74 11.79 8.742 8.742 0 0 1-4.01-1.11v.12a8.625 8.625 0 0 0 .61 3.19 8.842 8.842 0 0 0 6.48 5.48 9.914 9.914 0 0 1-2.33.3 10.045 10.045 0 0 1-1.66-.15 8.842 8.842 0 0 0 8.23 6.13 17.629 17.629 0 0 1-10.94 3.79 21.165 21.165 0 0 1-2.12-.13 25.1 25.1 0 0 0 13.54 3.96c13.78 0 22.27-9.72 24.49-19.79a23.977 23.977 0 0 0 .61-5.34c0-.38 0-.77-.02-1.14A17.867 17.867 0 0 0 43 4.14z" fill="#fff" fill-rule="evenodd"/></svg>