<svg xmlns="http://www.w3.org/2000/svg" viewBox="0 0 171.51 171.63">
  <defs>
    <style>
      g {
        fill: url(#gradient);
      }

      .a, .b, .c, .d, .e, .f, .g, .h {
        opacity: 0;
        animation-name: fade;
        animation-duration: 1.6s;
        animation-iteration-count: infinite;
        animation-timing-function: steps(8);
      }

      @keyframes fade {
        from { opacity: 1; }
        to { opacity: .125; }
      }

      .a {
        animation-delay: 1.4s;
      }

      .b {
        animation-delay: 1.2s;
      }

      .c {
        animation-delay: 1s;
      }

      .d {
        animation-delay: 0.8s;
      }

      .e {
        animation-delay: 0.6s;
      }

      .f {
        animation-delay: 0.4s;
      }

      .g {
        animation-delay: 0.2s;
      }
    </style>
    <linearGradient id="gradient" x1="0" y1="0" x2="0" y2="171.63" gradientUnits="userSpaceOnUse">
      <stop offset="0" stop-color="#6de5ec"/>
      <stop offset="1" stop-color="#6a64e6"/>
    </linearGradient>
  </defs>
  <g>
    <path class="a" d="M30.7,22a7.36,7.36,0,0,1,5.92,2.22L68.07,55.54a7.38,7.38,0,0,1-.18,10.37l-2.22,2.22a6.7,6.7,0,0,1-10.36.19L23.86,36.84a7.38,7.38,0,0,1,0-10.37l2.22-2.22A7.33,7.33,0,0,1,30.7,22h0Z"/>
    <path class="b" d="M5.91,77.39a7.31,7.31,0,0,1,1.48,0H51.61A7.38,7.38,0,0,1,59,84.61v3.15a7.38,7.38,0,0,1-7.34,7.41H7.39A7.37,7.37,0,0,1,0,88.5a7,7,0,0,1,0-.74V84.61a7.37,7.37,0,0,1,5.92-7.22h0Z"/>
    <path class="c" d="M60.12,101.65a7.33,7.33,0,0,1,6.1,2.22l2.22,2.22a7.37,7.37,0,0,1-.18,10.18L37,147.56a7.35,7.35,0,0,1-9.8.75c-.2-.18-.38-.37-.56-.56l-2.22-2.22a7.38,7.38,0,0,1,0-10.37l31.27-31.29a7.35,7.35,0,0,1,4.44-2.23h0Z"/>
    <path class="d" d="M83.43,112.57c.25.05.49.11.74.18h3.14A7.38,7.38,0,0,1,94.53,120v44.44a7.37,7.37,0,0,1-7.22,7.22H84.17a7.36,7.36,0,0,1-7.4-7.22V120a7.37,7.37,0,0,1,5.92-7.22c.24-.07.49-.13.74-.18Z"/>
    <path class="e" d="M109.33,101.83a7.35,7.35,0,0,1,6.66,2l31.26,31.29a7.36,7.36,0,0,1,.14,10.41h0a.8.8,0,0,1-.13.13L145,147.93a5.84,5.84,0,0,1-.55.56,7.38,7.38,0,0,1-9.81-.74l-31.26-31.29a7.38,7.38,0,0,1,0-10.37l2.22-2.22a7.38,7.38,0,0,1,3.7-2h0Z"/>
    <path class="f" d="M118.39,77.58a7.31,7.31,0,0,1,1.48,0h44.22a7.36,7.36,0,0,1,7.4,7.33h0v3.21a7.38,7.38,0,0,1-7.33,7.41H119.87a7.38,7.38,0,0,1-7.4-6.67c0-.25,0-.49,0-.74V85A7.37,7.37,0,0,1,118.39,77.58Z"/>
    <path class="g" d="M140.41,22.21a7.36,7.36,0,0,1,5.36,2.23L148,26.66A7.38,7.38,0,0,1,147.81,37L116.54,68.32a7.36,7.36,0,0,1-9.8.55,4.94,4.94,0,0,1-.56-.37L104,66.28a7.36,7.36,0,0,1-.13-10.41h0l.12-.13,31.27-31.29a7.39,7.39,0,0,1,5.18-2.23h0Z"/>
    <path class="h" d="M83.06,0c.25.05.49.11.74.18h3.14a7.36,7.36,0,0,1,7.4,7.22V51.84A7.37,7.37,0,0,1,87,59.25H83.8a7.38,7.38,0,0,1-7.4-7.34V7.4A7.37,7.37,0,0,1,82.32.18C82.56.11,82.81,0,83.06,0Z"/>
  </g>
</svg>
