<svg xmlns="http://www.w3.org/2000/svg" viewBox="0 0 171.51 171.63"><defs><style>*{fill:url(#gradient)}.a,.b,.c,.d,.e,.f,.g,.h{opacity:0;animation-name:fade;animation-duration:1.6s;animation-iteration-count:infinite;animation-timing-function:steps(8)}@keyframes fade{0%{opacity:1}to{opacity:.125}}.a{animation-delay:1.4s}.b{animation-delay:1.2s}.c{animation-delay:1s}.d{animation-delay:.8s}.e{animation-delay:.6s}.f{animation-delay:.4s}.g{animation-delay:.2s}</style><linearGradient id="gradient" x2="0" y2="171.63" gradientUnits="userSpaceOnUse"><stop offset="0" stop-color="#6de5ec"/><stop offset="1" stop-color="#6a64e6"/></linearGradient></defs><path class="a" d="M30.7 22a7.36 7.36 0 0 1 5.92 2.22l31.45 31.32a7.38 7.38 0 0 1-.18 10.37l-2.22 2.22a6.7 6.7 0 0 1-10.36.19L23.86 36.84a7.38 7.38 0 0 1 0-10.37l2.22-2.22A7.33 7.33 0 0 1 30.7 22z"/><path class="b" d="M5.91 77.39a7.31 7.31 0 0 1 1.48 0h44.22A7.38 7.38 0 0 1 59 84.61v3.15a7.38 7.38 0 0 1-7.34 7.41H7.39A7.37 7.37 0 0 1 0 88.5a7 7 0 0 1 0-.74v-3.15a7.37 7.37 0 0 1 5.92-7.22z"/><path class="c" d="M60.12 101.65a7.33 7.33 0 0 1 6.1 2.22l2.22 2.22a7.37 7.37 0 0 1-.18 10.18L37 147.56a7.35 7.35 0 0 1-9.8.75c-.2-.18-.38-.37-.56-.56l-2.22-2.22a7.38 7.38 0 0 1 0-10.37l31.27-31.29a7.35 7.35 0 0 1 4.44-2.23z"/><path class="d" d="M83.43 112.57c.25.05.49.11.74.18h3.14a7.38 7.38 0 0 1 7.22 7.25v44.44a7.37 7.37 0 0 1-7.22 7.22h-3.14a7.36 7.36 0 0 1-7.4-7.22V120a7.37 7.37 0 0 1 5.92-7.22c.24-.07.49-.13.74-.18z"/><path class="e" d="M109.33 101.83a7.35 7.35 0 0 1 6.66 2l31.26 31.29a7.36 7.36 0 0 1 .14 10.41.8.8 0 0 1-.13.13l-2.26 2.27a5.84 5.84 0 0 1-.55.56 7.38 7.38 0 0 1-9.81-.74l-31.26-31.29a7.38 7.38 0 0 1 0-10.37l2.22-2.22a7.38 7.38 0 0 1 3.7-2z"/><path class="f" d="M118.39 77.58a7.31 7.31 0 0 1 1.48 0h44.22a7.36 7.36 0 0 1 7.4 7.33v3.21a7.38 7.38 0 0 1-7.33 7.41h-44.29a7.38 7.38 0 0 1-7.4-6.67V85a7.37 7.37 0 0 1 5.92-7.42z"/><path class="g" d="M140.41 22.21a7.36 7.36 0 0 1 5.36 2.23l2.23 2.22a7.38 7.38 0 0 1-.19 10.34l-31.27 31.32a7.36 7.36 0 0 1-9.8.55 4.94 4.94 0 0 1-.56-.37L104 66.28a7.36 7.36 0 0 1-.13-10.41l.12-.13 31.27-31.29a7.39 7.39 0 0 1 5.18-2.23z"/><path class="h" d="M83.06 0c.25.05.49.11.74.18h3.14a7.36 7.36 0 0 1 7.4 7.22v44.44A7.37 7.37 0 0 1 87 59.25h-3.2a7.38 7.38 0 0 1-7.4-7.34V7.4A7.37 7.37 0 0 1 82.32.18c.24-.07.49-.18.74-.18z"/></svg>